<svg width="533" height="135" viewBox="0 0 533 135" fill="none" xmlns="http://www.w3.org/2000/svg">
<path d="M72.8759 128.443V67.5999L67.7577 55.2272L24.7367 12.2061L0 36.9428L37.9028 74.8369V128.443H72.8759Z" fill="#56ACFB"/>
<path d="M116.717 128.443V74.8457L154.611 36.9428L129.883 12.2061L86.8617 55.2272L81.7347 67.5999V128.443H116.717Z" fill="#56CFBE"/>
<path d="M223.372 105.221C213.878 105.221 206.826 102.033 202.214 95.6592C197.671 89.217 195.399 80.1642 195.399 68.5006C195.399 56.837 197.671 47.818 202.214 41.4437C206.826 35.0016 213.878 31.7805 223.372 31.7805C227.034 31.7805 230.255 32.2891 233.035 33.3063C235.883 34.2557 238.324 35.6119 240.359 37.375C242.393 39.1381 244.054 41.2742 245.343 43.7832C246.699 46.2922 247.75 49.1064 248.496 52.2258L234.256 55.6842C233.849 53.9889 233.374 52.4292 232.831 51.0052C232.289 49.5811 231.577 48.3605 230.695 47.3433C229.882 46.3261 228.831 45.5463 227.542 45.0038C226.322 44.3935 224.83 44.0884 223.067 44.0884C218.93 44.0884 215.98 45.7158 214.217 48.9708C212.522 52.158 211.674 56.5996 211.674 62.2958V74.7053C211.674 80.4015 212.522 84.8771 214.217 88.1321C215.98 91.3192 218.93 92.9128 223.067 92.9128C226.593 92.9128 229.136 91.8278 230.695 89.6578C232.323 87.4879 233.51 84.7076 234.256 81.317L248.496 84.7754C247.75 87.8947 246.699 90.7089 245.343 93.2179C244.054 95.727 242.393 97.8969 240.359 99.7279C238.324 101.491 235.883 102.847 233.035 103.797C230.255 104.746 227.034 105.221 223.372 105.221ZM254.051 92.3025H270.122V40.4265H254.051V28.729H285.176V92.3025H301.248V104H254.051V92.3025ZM336.809 44.8004C333.418 44.8004 331.045 44.1223 329.689 42.766C328.4 41.342 327.756 39.6467 327.756 37.6802V34.7303C327.756 32.696 328.4 31.0007 329.689 29.6445C331.045 28.2882 333.418 27.6101 336.809 27.6101C340.2 27.6101 342.539 28.2882 343.828 29.6445C345.184 31.0007 345.862 32.696 345.862 34.7303V37.6802C345.862 39.6467 345.184 41.342 343.828 42.766C342.539 44.1223 340.2 44.8004 336.809 44.8004ZM312.6 92.3025H329.282V63.2113H312.6V51.5137H344.336V92.3025H359.797V104H312.6V92.3025ZM364.945 51.5137H379.999V61.0752H380.711C382 57.9559 383.865 55.379 386.306 53.3447C388.747 51.3103 392.07 50.2931 396.274 50.2931C399.19 50.2931 401.835 50.8356 404.208 51.9206C406.649 53.0056 408.718 54.667 410.413 56.9048C412.176 59.1426 413.532 61.9907 414.482 65.449C415.499 68.9074 416.007 73.0101 416.007 77.7569C416.007 82.5037 415.499 86.6063 414.482 90.0647C413.532 93.5231 412.176 96.3712 410.413 98.609C408.718 100.847 406.649 102.508 404.208 103.593C401.835 104.678 399.19 105.221 396.274 105.221C392.07 105.221 388.747 104.237 386.306 102.271C383.865 100.236 382 97.6257 380.711 94.4385H379.999V124.344H364.945V51.5137ZM389.764 93.5231C393.155 93.5231 395.766 92.5059 397.596 90.4716C399.427 88.3694 400.343 85.4874 400.343 81.8256V73.6882C400.343 70.0263 399.427 67.1782 397.596 65.1439C395.766 63.0417 393.155 61.9906 389.764 61.9906C387.12 61.9906 384.814 62.6349 382.847 63.9233C380.949 65.2117 379.999 67.2461 379.999 70.0263V85.4874C379.999 88.2677 380.949 90.302 382.847 91.5905C384.814 92.8789 387.12 93.5231 389.764 93.5231ZM420.85 51.5137H435.904V61.0752H436.616C437.905 57.9559 439.769 55.379 442.211 53.3447C444.652 51.3103 447.975 50.2931 452.179 50.2931C455.095 50.2931 457.74 50.8356 460.113 51.9206C462.554 53.0056 464.622 54.667 466.318 56.9048C468.081 59.1426 469.437 61.9907 470.386 65.449C471.404 68.9074 471.912 73.0101 471.912 77.7569C471.912 82.5037 471.404 86.6063 470.386 90.0647C469.437 93.5231 468.081 96.3712 466.318 98.609C464.622 100.847 462.554 102.508 460.113 103.593C457.74 104.678 455.095 105.221 452.179 105.221C447.975 105.221 444.652 104.237 442.211 102.271C439.769 100.236 437.905 97.6257 436.616 94.4385H435.904V124.344H420.85V51.5137ZM445.669 93.5231C449.06 93.5231 451.67 92.5059 453.501 90.4716C455.332 88.3694 456.248 85.4874 456.248 81.8256V73.6882C456.248 70.0263 455.332 67.1782 453.501 65.1439C451.67 63.0417 449.06 61.9906 445.669 61.9906C443.024 61.9906 440.719 62.6349 438.752 63.9233C436.854 65.2117 435.904 67.2461 435.904 70.0263V85.4874C435.904 88.2677 436.854 90.302 438.752 91.5905C440.719 92.8789 443.024 93.5231 445.669 93.5231ZM514.492 51.5137H529.852L505.134 112.443C503.574 116.308 501.506 119.258 498.929 121.292C496.353 123.326 492.826 124.344 488.351 124.344H477.976V112.646H490.589L493.843 103.695L472.686 51.5137H488.859L496.488 73.5864L501.269 88.8441H502.083L506.66 73.5864L514.492 51.5137Z" fill="black"/>
</svg>
