<svg width="24" height="24" viewBox="0 0 24 24" fill="none" xmlns="http://www.w3.org/2000/svg">
<g id="Frame">
<path id="Vector" fill-rule="evenodd" clip-rule="evenodd" d="M14.0023 1.80899C14.0023 2.63707 13.3869 3.33519 12.5471 3.54991C16.8107 3.8044 20.1818 7.01182 20.1818 10.9311V16.6025C20.1818 17.928 20.2416 18.9983 21.4974 19.5661C21.8745 19.7366 22.0725 20.1191 21.9756 20.4901C21.8787 20.8612 21.5125 21.1232 21.0909 21.1232H13.2026C13.5801 21.4244 13.8181 21.8651 13.8181 22.3561C13.8181 23.264 13.0041 24 12 24C10.9958 24 10.1818 23.264 10.1818 22.3561C10.1818 21.8651 10.4199 21.4244 10.7973 21.1232H2.90918C2.48756 21.1232 2.12128 20.8612 2.0244 20.4901C1.92755 20.1191 2.12551 19.7366 2.50262 19.5661C3.75842 18.9983 3.81826 17.928 3.81826 16.6025V10.9311C3.81826 7.01108 7.19063 3.80319 11.4553 3.54977C10.6158 3.33488 10.0007 2.63689 10.0007 1.80899C10.0007 0.809913 10.8965 0 12.0015 0C13.1065 0 14.0023 0.809913 14.0023 1.80899ZM12 5.17752C8.48549 5.17752 5.63643 7.75349 5.63643 10.9311V16.6025L5.63648 16.6862C5.63735 17.4184 5.63864 18.5068 5.0897 19.4793H18.9103C18.3614 18.5068 18.3627 17.4184 18.3636 16.6862V16.6025V10.9311C18.3636 7.75349 15.5145 5.17752 12 5.17752Z" fill="#747474"/>
<circle id="Ellipse 2" cx="18" cy="8" r="4" fill="#DA4848"/>
</g>
</svg>
